<mxfile host="app.diagrams.net" modified="2024-01-20T02:51:00.869Z" agent="Mozilla/5.0 (Macintosh; Intel Mac OS X 10_15_7) AppleWebKit/537.36 (KHTML, like Gecko) Chrome/120.0.0.0 Safari/537.36" version="22.1.18" etag="HA7VcKskzW_0uanYdWXD" type="github">
  <diagram name="ページ1" id="gvUr_TlRvQmLy2o8XLkm">
    <mxGraphModel>
      <root>
        <mxCell id="0" />
        <mxCell id="1" parent="0" />
      </root>
    </mxGraphModel>
  </diagram>
</mxfile>
